<svg id="Слой_1" data-name="Слой 1" xmlns="http://www.w3.org/2000/svg" xmlns:xlink="http://www.w3.org/1999/xlink" viewBox="0 0 2480 646"><defs><style>.cls-1{opacity:0.93;}.cls-2{fill:#fff;}.cls-3{fill:url(#Безымянный_градиент_21);}.cls-4{fill:none;}.cls-4,.cls-5{stroke:#fff;stroke-miterlimit:10;stroke-width:4px;}.cls-5{fill:#242424;}.cls-6{fill:url(#Безымянный_градиент_3);}.cls-7{fill:url(#Безымянный_градиент_2);}</style><radialGradient id="Безымянный_градиент_21" cx="335.5" cy="462.5" r="71.5" gradientUnits="userSpaceOnUse"><stop offset="0" stop-color="#ff0ef6"/><stop offset="0.15" stop-color="#fb10f6"/><stop offset="0.29" stop-color="#ef17f7"/><stop offset="0.43" stop-color="#db21f8"/><stop offset="0.58" stop-color="#bf31f9"/><stop offset="0.72" stop-color="#9b44fb"/><stop offset="0.87" stop-color="#6f5cfd"/><stop offset="1" stop-color="#3f76ff"/></radialGradient><radialGradient id="Безымянный_градиент_3" cx="1352.33" cy="46.72" fy="165.79957150023688" r="119.08" gradientUnits="userSpaceOnUse"><stop offset="0" stop-color="#ff7b3f"/><stop offset="0.14" stop-color="#fc8044"/><stop offset="0.3" stop-color="#f38e51"/><stop offset="0.46" stop-color="#e4a566"/><stop offset="0.64" stop-color="#cfc585"/><stop offset="0.82" stop-color="#b4efac"/><stop offset="0.89" stop-color="#afb"/></radialGradient><radialGradient id="Безымянный_градиент_2" cx="2371" cy="551.5" fx="2464.472221953817" fy="634.492479778509" r="214.13" gradientUnits="userSpaceOnUse"><stop offset="0" stop-color="#ff0ef6"/><stop offset="0.08" stop-color="#fb10f6"/><stop offset="0.17" stop-color="#ef17f7"/><stop offset="0.25" stop-color="#db21f8"/><stop offset="0.34" stop-color="#bf31f9"/><stop offset="0.42" stop-color="#9b44fb"/><stop offset="0.5" stop-color="#6f5cfd"/><stop offset="0.58" stop-color="#3f76ff"/></radialGradient></defs><title>antenna_na_stolbe_fon_new</title><g class="cls-1"><rect class="cls-2" x="191" y="318.34" width="33.14" height="11.01" transform="translate(-176.36 300.14) rotate(-53.81)"/><rect class="cls-2" x="202.06" y="307.28" width="11.01" height="33.14" transform="translate(-176.36 300.14) rotate(-53.81)"/></g><g class="cls-1"><rect class="cls-2" x="2167.4" y="338.78" width="21.63" height="65.08" transform="translate(-20.48 590.91) rotate(-15.38)"/><rect class="cls-2" x="2145.68" y="360.51" width="65.08" height="21.63" transform="translate(-20.49 590.91) rotate(-15.38)"/></g><g class="cls-1"><rect class="cls-2" x="1973.95" y="518.29" width="11.66" height="35.09" transform="matrix(0.96, -0.27, 0.27, 0.96, -71.22, 544.18)"/><rect class="cls-2" x="1962.24" y="530.01" width="35.09" height="11.66" transform="matrix(0.96, -0.27, 0.27, 0.96, -71.22, 544.18)"/></g><g class="cls-1"><rect class="cls-2" x="1530.4" y="530.78" width="21.63" height="65.08" transform="translate(-94.2 428.86) rotate(-15.38)"/><rect class="cls-2" x="1508.68" y="552.51" width="65.08" height="21.63" transform="translate(-94.2 428.86) rotate(-15.38)"/></g><g class="cls-1"><rect class="cls-2" x="862.3" y="432.34" width="15.62" height="5.19" transform="translate(148.93 1087.75) rotate(-68.71)"/><rect class="cls-2" x="867.52" y="427.12" width="5.19" height="15.62" transform="translate(148.93 1087.75) rotate(-68.71)"/></g><g class="cls-1"><rect class="cls-2" x="1640.28" y="103.52" width="48.61" height="16.16" transform="translate(911.03 1600.04) rotate(-66.98)"/><rect class="cls-2" x="1656.5" y="87.3" width="16.16" height="48.61" transform="translate(911.02 1600.04) rotate(-66.98)"/></g><g class="cls-1"><rect class="cls-2" x="648.78" y="175.68" width="7.09" height="21.32"/><rect class="cls-2" x="641.66" y="182.8" width="21.32" height="7.09"/></g><g class="cls-1"><rect class="cls-2" x="374.45" y="100.68" width="10.74" height="32.32"/><rect class="cls-2" x="363.66" y="111.47" width="32.32" height="10.74"/></g><g class="cls-1"><rect class="cls-2" x="684.66" y="480.47" width="32.32" height="10.74" transform="translate(108.96 1099.76) rotate(-80.78)"/><rect class="cls-2" x="695.45" y="469.68" width="10.74" height="32.32" transform="translate(108.96 1099.76) rotate(-80.78)"/></g><g class="cls-1"><rect class="cls-2" x="110.03" y="135.74" width="7.04" height="21.17" transform="translate(-64.32 94.67) rotate(-35.99)"/><rect class="cls-2" x="102.96" y="142.81" width="21.17" height="7.04" transform="translate(-64.32 94.67) rotate(-35.99)"/></g><g class="cls-1"><rect class="cls-2" x="1785.68" y="430.1" width="15.95" height="5.3" transform="translate(1153.38 2163.21) rotate(-83.26)"/><rect class="cls-2" x="1791" y="424.78" width="5.3" height="15.95" transform="translate(1153.38 2163.22) rotate(-83.26)"/></g><g class="cls-1"><rect class="cls-2" x="1352.68" y="178.1" width="15.95" height="5.3" transform="translate(1021.46 1510.78) rotate(-83.26)"/><rect class="cls-2" x="1358" y="172.78" width="5.3" height="15.95" transform="translate(1021.46 1510.79) rotate(-83.26)"/></g><g class="cls-1"><rect class="cls-2" x="1375.66" y="440.47" width="32.34" height="10.75" transform="translate(785.71 1775.73) rotate(-83.26)"/><rect class="cls-2" x="1386.46" y="429.68" width="10.75" height="32.34" transform="translate(785.7 1775.73) rotate(-83.26)"/></g><g class="cls-1"><rect class="cls-2" x="889.78" y="62.68" width="7.09" height="21.32"/><rect class="cls-2" x="882.66" y="69.8" width="21.32" height="7.09"/></g><g class="cls-1"><rect class="cls-2" x="106.8" y="520.68" width="19.05" height="57.32" transform="translate(-215.98 96.7) rotate(-24.33)"/><rect class="cls-2" x="87.66" y="539.82" width="57.32" height="19.05" transform="translate(-215.98 96.7) rotate(-24.33)"/></g><g class="cls-1"><rect class="cls-2" x="406.57" y="258.14" width="19.32" height="6.42" transform="translate(-40.47 442.95) rotate(-53.81)"/><rect class="cls-2" x="413.01" y="251.69" width="6.42" height="19.32" transform="translate(-40.47 442.95) rotate(-53.81)"/></g><g class="cls-1"><rect class="cls-2" x="1887.25" y="158.93" width="36.16" height="12.02" transform="translate(647.16 1605.25) rotate(-53.81)"/><rect class="cls-2" x="1899.32" y="146.86" width="12.02" height="36.16" transform="translate(647.16 1605.25) rotate(-53.81)"/></g><g class="cls-1"><rect class="cls-2" x="2352.16" y="248.99" width="7.22" height="21.73" transform="translate(-0.36 516.45) rotate(-12.51)"/><rect class="cls-2" x="2344.9" y="256.25" width="21.73" height="7.22" transform="translate(-0.36 516.45) rotate(-12.51)"/></g><g class="cls-1"><rect class="cls-2" x="2243.9" y="57.7" width="17.62" height="5.86" transform="matrix(0.59, -0.81, 0.81, 0.59, 873.6, 1842.89)"/><rect class="cls-2" x="2249.78" y="51.82" width="5.86" height="17.62" transform="translate(873.6 1842.89) rotate(-53.81)"/></g><g class="cls-1"><rect class="cls-2" x="1051.88" y="531.75" width="28.06" height="9.33" transform="translate(3.6 1079.92) rotate(-53.81)"/><rect class="cls-2" x="1061.25" y="522.38" width="9.33" height="28.06" transform="translate(3.6 1079.92) rotate(-53.81)"/></g><g class="cls-1"><rect class="cls-2" x="1037.88" y="170.75" width="28.06" height="9.33" transform="translate(289.22 920.79) rotate(-53.81)"/><rect class="cls-2" x="1047.25" y="161.38" width="9.33" height="28.06" transform="translate(289.21 920.79) rotate(-53.81)"/></g><circle class="cls-3" cx="335.5" cy="462.5" r="71.5"/><path class="cls-4" d="M586.27,358.53H545.36l-5.51,17.31H512.31l37.45-110.16h32.11l37.45,110.16m-53.5-81.36-12.91,40.44"/><path class="cls-4" d="M675.67,316.67c-8.66,0-14.64,5-14.64,16.21v43H637.42V297.15H661v7.4c4.25-5.82,12.12-9.6,22.51-9.6,15.89,0,29.43,11.33,29.43,32.58v48.31"/><path class="cls-4" d="M784.73,319.81H768.52v27.86m16.21,28.17c-30.84,3.15-39.81-6.14-39.81-28.17V319.81H732.33V297.15h12.59V282.2l23.6-7.08v22"/><path class="cls-4" d="M845.64,378c-26.91,0-43.59-18.09-43.59-41.54S819,295,843.91,295c23,0,40,17.78,40,41.55a45.72,45.72,0,0,1-.94,9.44H827.07m16.68-30.06c-9,0-15,4.41-17.15,12.43"/><path class="cls-4" d="M945,316.67c-8.66,0-14.64,5-14.64,16.21v43H906.7V297.15h23.61v7.4c4.25-5.82,12.12-9.6,22.51-9.6,15.89,0,29.43,11.33,29.43,32.58v48.31"/><path class="cls-4" d="M1046.14,316.67c-8.65,0-14.63,5-14.63,16.21v43H1007.9V297.15h23.61v7.4c4.25-5.82,12.11-9.6,22.5-9.6,15.9,0,29.43,11.33,29.43,32.58v48.31"/><path class="cls-4" d="M1189.83,297.15v78.69h-23.61v-7.4c-5.19,6-12.9,9.6-23.45,9.6-20.61,0-37.61-18.09-37.61-41.54s17-41.55,37.61-41.55c10.55,0,18.26,3.62,23.45,9.6v-7.4Zm-23.61,39.35c0-11.81-7.86-19.2-18.72-19.2s-18.73,7.39-18.73,19.2,7.87,19.2,18.73,19.2S1166.22,348.3,1166.22,336.5Z"/><path class="cls-4" d="M1242.55,316v59.8h-25.18V265.68h18.89l42.49,59.8v-59.8h25.18V375.84"/><path class="cls-4" d="M1412.21,297.15v78.69H1388.6v-7.4c-5.19,6-12.9,9.6-23.44,9.6-20.62,0-37.62-18.09-37.62-41.54s17-41.55,37.62-41.55c10.54,0,18.25,3.62,23.44,9.6v-7.4ZM1388.6,336.5c0-11.81-7.86-19.2-18.72-19.2s-18.73,7.39-18.73,19.2,7.87,19.2,18.73,19.2S1388.6,348.3,1388.6,336.5Z"/><path class="cls-4" d="M1475.79,288c-7.87,0-11.8,3.94-11.8,8.34,0,5,2.68,8.5,19.83,13.7,16.68,5,35.41,10.86,35.41,34.15,0,21.24-17,33.83-40.92,33.83-23.13,0-37.93-11-44.06-27.22L1456,338.23c3.94,9.13,10.71,15.26,23.14,15.26,12,0,15-4.72,15-9,0-6.76-6.3-9.44-22.82-14s-32.42-12.44-32.42-33.53c0-21.24,17.94-33.52,37-33.52,18.1,0,32.27,8.66,40.29,24.87"/><path class="cls-4" d="M1584.23,319.81H1568v27.86m16.21,28.17c-30.85,3.15-39.82-6.14-39.82-28.17V319.81h-12.59V297.15h12.59V282.2l23.61-7.08v22"/><path class="cls-4" d="M1601.54,336.5A41.71,41.71,0,1,1,1643.25,378,41.25,41.25,0,0,1,1601.54,336.5Zm59.81,0c0-11.18-7.87-18.57-18.1-18.57s-18.1,7.39-18.1,18.57,7.87,18.57,18.1,18.57S1661.35,347.67,1661.35,336.5Z"/><path class="cls-4" d="M1707.77,261h23.61V375.84h-23.61Z"/><path class="cls-4" d="M1842.81,336.5c0,23.45-17,41.54-37.62,41.54-10.54,0-18.25-3.61-23.45-9.6v7.4h-23.6V265.68h23.6v38.87c5.2-6,12.91-9.6,23.45-9.6C1825.81,295,1842.81,313.05,1842.81,336.5Zm-23.61,0c0-11.81-7.87-19.2-18.73-19.2s-18.73,7.39-18.73,19.2,7.87,19.2,18.73,19.2S1819.2,348.3,1819.2,336.5Z"/><path class="cls-4" d="M1939.59,361.83c-7.71,10.71-19.35,16.21-34.3,16.21-26.92,0-43.6-18.09-43.6-41.54s17-41.55,41.86-41.55c23,0,40,17.78,40,41.55a45.72,45.72,0,0,1-1,9.44h-55.86m16.68-30.06c-9,0-15,4.41-17.16,12.43"/><path class="cls-5" d="M596,365.53H555.08l-5.51,17.31H522l37.45-110.16h32.11l37.46,110.16H601.5Zm-7.56-23.61-12.9-40.44-12.91,40.44Z"/><path class="cls-5" d="M722.69,334.53v48.31H699.08V338c0-9.76-6.14-14.32-13.69-14.32-8.66,0-14.64,5-14.64,16.21v43h-23.6V304.15h23.6v7.4c4.25-5.82,12.12-9.6,22.51-9.6C709.15,302,722.69,313.28,722.69,334.53Z"/><path class="cls-5" d="M778.25,326.81v27.86c0,6.77,5.82,7.4,16.21,6.77v21.4c-30.85,3.15-39.82-6.14-39.82-28.17V326.81H742.05V304.15h12.59V289.2l23.61-7.08v22h16.21v22.66Z"/><path class="cls-5" d="M855.68,364c6.45,0,12-2.52,15.11-6l18.88,10.85c-7.71,10.71-19.36,16.22-34.31,16.22-26.91,0-43.59-18.1-43.59-41.55s17-41.55,41.86-41.55c23,0,40,17.78,40,41.55a45.72,45.72,0,0,1-.94,9.44H836.79C839.78,361.12,847,364,855.68,364Zm14.48-28.65c-2.52-9.12-9.6-12.43-16.69-12.43-9,0-15,4.41-17.15,12.43Z"/><path class="cls-5" d="M992,334.53v48.31H968.36V338c0-9.76-6.14-14.32-13.69-14.32-8.66,0-14.64,5-14.64,16.21v43h-23.6V304.15H940v7.4c4.25-5.82,12.12-9.6,22.51-9.6C978.43,302,992,313.28,992,334.53Z"/><path class="cls-5" d="M1093.16,334.53v48.31h-23.6V338c0-9.76-6.14-14.32-13.7-14.32-8.65,0-14.63,5-14.63,16.21v43h-23.61V304.15h23.61v7.4c4.25-5.82,12.12-9.6,22.5-9.6C1079.63,302,1093.16,313.28,1093.16,334.53Z"/><path class="cls-5" d="M1199.55,304.15v78.69H1176v-7.39c-5.2,6-12.91,9.6-23.45,9.6-20.62,0-37.62-18.1-37.62-41.55s17-41.55,37.62-41.55c10.54,0,18.25,3.62,23.45,9.6v-7.4ZM1176,343.5c0-11.81-7.87-19.2-18.73-19.2s-18.73,7.39-18.73,19.2,7.87,19.2,18.73,19.2S1176,355.3,1176,343.5Z"/><path class="cls-5" d="M1313.65,272.68V382.84h-18.88L1252.28,323v59.8h-25.19V272.68H1246l42.49,59.8v-59.8Z"/><path class="cls-5" d="M1421.93,304.15v78.69h-23.6v-7.39c-5.2,6-12.91,9.6-23.45,9.6-20.62,0-37.62-18.1-37.62-41.55s17-41.55,37.62-41.55c10.54,0,18.25,3.62,23.45,9.6v-7.4Zm-23.6,39.35c0-11.81-7.87-19.2-18.73-19.2s-18.73,7.39-18.73,19.2,7.87,19.2,18.73,19.2S1398.33,355.3,1398.33,343.5Z"/><path class="cls-5" d="M1439,360.82l21.71-12.59c3.94,9.13,16.5,14.68,28.32,13s14.23-7.32,14-10c-.58-6.74-5.52-9.12-22-13.68-16.37-4.57-32.42-12.44-32.42-33.53,0-21.24,17.94-33.52,37-33.52,18.1,0,32.27,8.66,40.29,24.87l-21.24,12.43c-3.78-7.87-9-12.75-19-12.75-7.86,0-11.8,3.94-11.8,8.35,0,5,2.68,8.49,19.83,13.69,16.68,5,35.41,10.86,35.41,34.15,0,21.25-17,33.84-40.92,33.84C1464.9,385.05,1445.1,377,1439,360.82Z"/><path class="cls-5" d="M1577.74,326.81v27.86c0,6.77,5.82,7.4,16.21,6.77v21.4c-30.85,3.15-39.82-6.14-39.82-28.17V326.81h-12.59V304.15h12.59V289.2l23.61-7.08v22H1594v22.66Z"/><path class="cls-5" d="M1611.26,343.5A41.71,41.71,0,1,1,1653,385.05,41.25,41.25,0,0,1,1611.26,343.5Zm59.81,0c0-11.18-7.87-18.57-18.1-18.57s-18.1,7.39-18.1,18.57,7.87,18.57,18.1,18.57S1671.07,354.67,1671.07,343.5Z"/><path class="cls-5" d="M1717.5,268h23.6V382.84h-23.6Z"/><path class="cls-5" d="M1852.53,343.5c0,23.45-17,41.55-37.62,41.55-10.54,0-18.25-3.62-23.45-9.6v7.39h-23.6V272.68h23.6v38.87c5.2-6,12.91-9.6,23.45-9.6C1835.53,302,1852.53,320.05,1852.53,343.5Zm-23.61,0c0-11.81-7.87-19.2-18.73-19.2s-18.73,7.39-18.73,19.2,7.87,19.2,18.73,19.2S1828.92,355.3,1828.92,343.5Z"/><path class="cls-5" d="M1915.32,364c6.46,0,12-2.52,15.11-6l18.89,10.85c-7.72,10.71-19.36,16.22-34.31,16.22-26.91,0-43.6-18.1-43.6-41.55s17-41.55,41.87-41.55c23,0,40,17.78,40,41.55a45.72,45.72,0,0,1-.94,9.44h-55.87C1899.43,361.12,1906.67,364,1915.32,364Zm14.48-28.65c-2.52-9.12-9.6-12.43-16.68-12.43-9,0-14.95,4.41-17.16,12.43Z"/><path class="cls-6" d="M1240.76,0c.07.44.15.87.23,1.31a113.34,113.34,0,0,0,132.54,90.11A113.38,113.38,0,0,0,1463.9,0Z"/><path class="cls-7" d="M2480,646V470.35A155.09,155.09,0,0,0,2265.75,646Z"/></svg>