<svg id="Слой_1" data-name="Слой 1" xmlns="http://www.w3.org/2000/svg" xmlns:xlink="http://www.w3.org/1999/xlink" viewBox="0 0 2480 646"><defs><style>.cls-1,.cls-6{fill:#242424;}.cls-2,.cls-7{fill:none;}.cls-2,.cls-6,.cls-7{stroke:#fff;}.cls-2,.cls-6{stroke-miterlimit:10;stroke-width:4px;}.cls-3{opacity:0.93;}.cls-4{fill:#fff;}.cls-5{fill:url(#Безымянный_градиент_21);}.cls-7{stroke-width:2px;}.cls-8{fill:url(#Безымянный_градиент_3);}.cls-9{fill:url(#Безымянный_градиент_2);}</style><radialGradient id="Безымянный_градиент_21" cx="318" cy="406" r="46" gradientUnits="userSpaceOnUse"><stop offset="0" stop-color="#ff0ef6"/><stop offset="0.15" stop-color="#fb10f6"/><stop offset="0.29" stop-color="#ef17f7"/><stop offset="0.43" stop-color="#db21f8"/><stop offset="0.58" stop-color="#bf31f9"/><stop offset="0.72" stop-color="#9b44fb"/><stop offset="0.87" stop-color="#6f5cfd"/><stop offset="1" stop-color="#3f76ff"/></radialGradient><radialGradient id="Безымянный_градиент_3" cx="1352.33" cy="46.72" fy="165.79957150024026" r="119.08" gradientUnits="userSpaceOnUse"><stop offset="0" stop-color="#ff7b3f"/><stop offset="0.14" stop-color="#fc8044"/><stop offset="0.3" stop-color="#f38e51"/><stop offset="0.46" stop-color="#e4a566"/><stop offset="0.64" stop-color="#cfc585"/><stop offset="0.82" stop-color="#b4efac"/><stop offset="0.89" stop-color="#afb"/></radialGradient><radialGradient id="Безымянный_градиент_2" cx="2371" cy="551.5" fx="2464.4722219538176" fy="634.4924797785088" r="214.13" gradientUnits="userSpaceOnUse"><stop offset="0" stop-color="#ff0ef6"/><stop offset="0.08" stop-color="#fb10f6"/><stop offset="0.17" stop-color="#ef17f7"/><stop offset="0.25" stop-color="#db21f8"/><stop offset="0.34" stop-color="#bf31f9"/><stop offset="0.42" stop-color="#9b44fb"/><stop offset="0.5" stop-color="#6f5cfd"/><stop offset="0.58" stop-color="#3f76ff"/></radialGradient></defs><title>antenna_na_stolbe_fon</title><rect class="cls-1" width="2480" height="646"/><path class="cls-2" d="M586.27,307.33H545.36l-5.51,17.31H512.31l37.45-110.17h32.11l37.45,110.17m-53.5-81.37-12.91,40.45"/><path class="cls-2" d="M675.67,265.46c-8.66,0-14.64,5-14.64,16.21v43H637.42V246H661v7.4c4.25-5.83,12.12-9.6,22.51-9.6,15.89,0,29.43,11.33,29.43,32.57v48.32"/><path class="cls-2" d="M784.73,268.61H768.52v27.86m16.21,28.17c-30.84,3.15-39.81-6.14-39.81-28.17V268.61H732.33V246h12.59V231l23.6-7.08v22"/><path class="cls-2" d="M845.64,326.84c-26.91,0-43.59-18.1-43.59-41.55s17-41.54,41.86-41.54c23,0,40,17.78,40,41.54a45.75,45.75,0,0,1-.94,9.45H827.07m16.68-30.06c-9,0-15,4.4-17.15,12.43"/><path class="cls-2" d="M945,265.46c-8.66,0-14.64,5-14.64,16.21v43H906.7V246h23.61v7.4c4.25-5.83,12.12-9.6,22.51-9.6,15.89,0,29.43,11.33,29.43,32.57v48.32"/><path class="cls-2" d="M1046.14,265.46c-8.65,0-14.63,5-14.63,16.21v43H1007.9V246h23.61v7.4c4.25-5.83,12.11-9.6,22.5-9.6,15.9,0,29.43,11.33,29.43,32.57v48.32"/><path class="cls-2" d="M1189.83,246v78.69h-23.61v-7.4c-5.19,6-12.9,9.6-23.45,9.6-20.61,0-37.61-18.1-37.61-41.55s17-41.54,37.61-41.54c10.55,0,18.26,3.62,23.45,9.6V246Zm-23.61,39.34c0-11.8-7.86-19.2-18.72-19.2s-18.73,7.4-18.73,19.2,7.87,19.21,18.73,19.21S1166.22,297.1,1166.22,285.29Z"/><path class="cls-2" d="M1242.55,264.84v59.8h-25.18V214.47h18.89l42.49,59.81V214.47h25.18V324.64"/><path class="cls-2" d="M1412.21,246v78.69H1388.6v-7.4c-5.19,6-12.9,9.6-23.44,9.6-20.62,0-37.62-18.1-37.62-41.55s17-41.54,37.62-41.54c10.54,0,18.25,3.62,23.44,9.6V246Zm-23.61,39.34c0-11.8-7.86-19.2-18.72-19.2s-18.73,7.4-18.73,19.2,7.87,19.21,18.73,19.21S1388.6,297.1,1388.6,285.29Z"/><path class="cls-2" d="M1475.79,236.82c-7.87,0-11.8,3.94-11.8,8.34,0,5,2.68,8.5,19.83,13.7,16.68,5,35.41,10.85,35.41,34.15,0,21.24-17,33.83-40.92,33.83-23.13,0-37.93-11-44.06-27.22L1456,287c3.94,9.12,10.71,15.26,23.14,15.26,12,0,15-4.72,15-9,0-6.77-6.3-9.44-22.82-14s-32.42-12.43-32.42-33.52,17.94-33.52,37-33.52c18.1,0,32.27,8.66,40.29,24.87"/><path class="cls-2" d="M1584.23,268.61H1568v27.86m16.21,28.17c-30.85,3.15-39.82-6.14-39.82-28.17V268.61h-12.59V246h12.59V231l23.61-7.08v22"/><path class="cls-2" d="M1601.54,285.29a41.71,41.71,0,1,1,41.71,41.55A41.25,41.25,0,0,1,1601.54,285.29Zm59.81,0c0-11.17-7.87-18.57-18.1-18.57s-18.1,7.4-18.1,18.57,7.87,18.58,18.1,18.58S1661.35,296.47,1661.35,285.29Z"/><path class="cls-2" d="M1707.77,209.75h23.61V324.64h-23.61Z"/><path class="cls-2" d="M1842.81,285.29c0,23.45-17,41.55-37.62,41.55-10.54,0-18.25-3.62-23.45-9.6v7.4h-23.6V214.47h23.6v38.88c5.2-6,12.91-9.6,23.45-9.6C1825.81,243.75,1842.81,261.85,1842.81,285.29Zm-23.61,0c0-11.8-7.87-19.2-18.73-19.2s-18.73,7.4-18.73,19.2,7.87,19.21,18.73,19.21S1819.2,297.1,1819.2,285.29Z"/><path class="cls-2" d="M1939.59,310.63c-7.71,10.7-19.35,16.21-34.3,16.21-26.92,0-43.6-18.1-43.6-41.55s17-41.54,41.86-41.54c23,0,40,17.78,40,41.54a45.74,45.74,0,0,1-1,9.45h-55.86m16.68-30.06c-9,0-15,4.4-17.16,12.43"/><g class="cls-3"><rect class="cls-4" x="207.57" y="319.14" width="19.32" height="6.42" transform="translate(-171.2 307.32) rotate(-53.81)"/><rect class="cls-4" x="214.01" y="312.69" width="6.42" height="19.32" transform="translate(-171.2 307.32) rotate(-53.81)"/></g><g class="cls-3"><rect class="cls-4" x="2167.4" y="338.78" width="21.63" height="65.08" transform="translate(-20.48 590.91) rotate(-15.38)"/><rect class="cls-4" x="2145.68" y="360.51" width="65.08" height="21.63" transform="translate(-20.49 590.91) rotate(-15.38)"/></g><g class="cls-3"><rect class="cls-4" x="862.3" y="382.34" width="15.62" height="5.19" transform="translate(195.52 1055.9) rotate(-68.71)"/><rect class="cls-4" x="867.52" y="377.12" width="5.19" height="15.62" transform="translate(195.52 1055.9) rotate(-68.71)"/></g><g class="cls-3"><rect class="cls-4" x="1640.28" y="103.52" width="48.61" height="16.16" transform="translate(911.03 1600.04) rotate(-66.98)"/><rect class="cls-4" x="1656.5" y="87.3" width="16.16" height="48.61" transform="translate(911.02 1600.04) rotate(-66.98)"/></g><g class="cls-3"><rect class="cls-4" x="648.78" y="175.68" width="7.09" height="21.32"/><rect class="cls-4" x="641.66" y="182.8" width="21.32" height="7.09"/></g><g class="cls-3"><rect class="cls-4" x="374.45" y="100.68" width="10.74" height="32.32"/><rect class="cls-4" x="363.66" y="111.47" width="32.32" height="10.74"/></g><g class="cls-3"><rect class="cls-4" x="110.03" y="135.74" width="7.04" height="21.17" transform="translate(-64.32 94.67) rotate(-35.99)"/><rect class="cls-4" x="102.96" y="142.81" width="21.17" height="7.04" transform="translate(-64.32 94.67) rotate(-35.99)"/></g><g class="cls-3"><rect class="cls-4" x="1785.68" y="390.1" width="15.95" height="5.3" transform="translate(1193.1 2127.91) rotate(-83.26)"/><rect class="cls-4" x="1791" y="384.78" width="5.3" height="15.95" transform="translate(1193.1 2127.91) rotate(-83.26)"/></g><g class="cls-3"><rect class="cls-4" x="1375.66" y="390.47" width="32.34" height="10.75" transform="translate(835.36 1731.6) rotate(-83.26)"/><rect class="cls-4" x="1386.46" y="379.68" width="10.75" height="32.34" transform="translate(835.36 1731.6) rotate(-83.26)"/></g><g class="cls-3"><rect class="cls-4" x="1007.78" y="95.68" width="7.09" height="21.32"/><rect class="cls-4" x="1000.66" y="102.8" width="21.32" height="7.09"/></g><g class="cls-3"><rect class="cls-4" x="106.8" y="520.68" width="19.05" height="57.32" transform="translate(-215.98 96.7) rotate(-24.33)"/><rect class="cls-4" x="87.66" y="539.82" width="57.32" height="19.05" transform="translate(-215.98 96.7) rotate(-24.33)"/></g><g class="cls-3"><rect class="cls-4" x="470.57" y="379.14" width="19.32" height="6.42" transform="translate(-111.92 544.15) rotate(-53.81)"/><rect class="cls-4" x="477.01" y="372.69" width="6.42" height="19.32" transform="translate(-111.92 544.15) rotate(-53.81)"/></g><g class="cls-3"><rect class="cls-4" x="1887.25" y="158.93" width="36.16" height="12.02" transform="translate(647.16 1605.25) rotate(-53.81)"/><rect class="cls-4" x="1899.32" y="146.86" width="12.02" height="36.16" transform="translate(647.16 1605.25) rotate(-53.81)"/></g><g class="cls-3"><rect class="cls-4" x="2352.16" y="248.99" width="7.22" height="21.73" transform="translate(-0.36 516.45) rotate(-12.51)"/><rect class="cls-4" x="2344.9" y="256.25" width="21.73" height="7.22" transform="translate(-0.36 516.45) rotate(-12.51)"/></g><g class="cls-3"><rect class="cls-4" x="2243.9" y="57.7" width="17.62" height="5.86" transform="matrix(0.59, -0.81, 0.81, 0.59, 873.6, 1842.89)"/><rect class="cls-4" x="2249.78" y="51.82" width="5.86" height="17.62" transform="translate(873.6 1842.89) rotate(-53.81)"/></g><circle class="cls-5" cx="318" cy="406" r="46"/><path class="cls-6" d="M596,314.33H555.08l-5.51,17.31H522l37.45-110.17h32.11l37.46,110.17H601.5Zm-7.56-23.61-12.9-40.44-12.91,40.44Z"/><path class="cls-6" d="M722.69,283.32v48.32H699.08V286.79c0-9.76-6.14-14.33-13.69-14.33-8.66,0-14.64,5-14.64,16.22v43h-23.6V253h23.6v7.4c4.25-5.83,12.12-9.6,22.51-9.6C709.15,250.75,722.69,262.08,722.69,283.32Z"/><path class="cls-6" d="M778.25,275.61v27.86c0,6.77,5.82,7.4,16.21,6.77v21.4c-30.85,3.15-39.82-6.14-39.82-28.17V275.61H742.05V253h12.59V238l23.61-7.08v22h16.21v22.66Z"/><path class="cls-6" d="M855.68,312.75c6.45,0,12-2.51,15.11-6l18.88,10.86c-7.71,10.71-19.36,16.21-34.31,16.21-26.91,0-43.59-18.1-43.59-41.55s17-41.54,41.86-41.54c23,0,40,17.78,40,41.54a45.75,45.75,0,0,1-.94,9.45H836.79C839.78,309.92,847,312.75,855.68,312.75Zm14.48-28.64c-2.52-9.13-9.6-12.43-16.69-12.43-9,0-15,4.41-17.15,12.43Z"/><path class="cls-6" d="M992,283.32v48.32H968.36V286.79c0-9.76-6.14-14.33-13.69-14.33-8.66,0-14.64,5-14.64,16.22v43h-23.6V253H940v7.4c4.25-5.83,12.12-9.6,22.51-9.6C978.43,250.75,992,262.08,992,283.32Z"/><path class="cls-6" d="M1093.16,283.32v48.32h-23.6V286.79c0-9.76-6.14-14.33-13.7-14.33-8.65,0-14.63,5-14.63,16.22v43h-23.61V253h23.61v7.4c4.25-5.83,12.12-9.6,22.5-9.6C1079.63,250.75,1093.16,262.08,1093.16,283.32Z"/><path class="cls-6" d="M1199.55,253v78.69H1176v-7.4c-5.2,6-12.91,9.6-23.45,9.6-20.62,0-37.62-18.1-37.62-41.55s17-41.54,37.62-41.54c10.54,0,18.25,3.62,23.45,9.6V253ZM1176,292.29c0-11.8-7.87-19.19-18.73-19.19s-18.73,7.39-18.73,19.19,7.87,19.21,18.73,19.21S1176,304.1,1176,292.29Z"/><path class="cls-6" d="M1313.65,221.47V331.64h-18.88l-42.49-59.8v59.8h-25.19V221.47H1246l42.49,59.81V221.47Z"/><path class="cls-6" d="M1421.93,253v78.69h-23.6v-7.4c-5.2,6-12.91,9.6-23.45,9.6-20.62,0-37.62-18.1-37.62-41.55s17-41.54,37.62-41.54c10.54,0,18.25,3.62,23.45,9.6V253Zm-23.6,39.34c0-11.8-7.87-19.19-18.73-19.19s-18.73,7.39-18.73,19.19,7.87,19.21,18.73,19.21S1398.33,304.1,1398.33,292.29Z"/><path class="cls-6" d="M1439,309.62,1460.68,297c3.94,9.12,16.5,14.68,28.32,13s14.23-7.32,14-10c-.58-6.74-5.52-9.12-22-13.69-16.37-4.56-32.42-12.43-32.42-33.52s17.94-33.52,37-33.52c18.1,0,32.27,8.66,40.29,24.87l-21.24,12.43c-3.78-7.87-9-12.75-19-12.75-7.86,0-11.8,3.94-11.8,8.34,0,5,2.68,8.5,19.83,13.7,16.68,5,35.41,10.85,35.41,34.15,0,21.24-17,33.83-40.92,33.83C1464.9,333.84,1445.1,325.83,1439,309.62Z"/><path class="cls-6" d="M1577.74,275.61v27.86c0,6.77,5.82,7.4,16.21,6.77v21.4c-30.85,3.15-39.82-6.14-39.82-28.17V275.61h-12.59V253h12.59V238l23.61-7.08v22H1594v22.66Z"/><path class="cls-6" d="M1611.26,292.29A41.71,41.71,0,1,1,1653,333.84,41.25,41.25,0,0,1,1611.26,292.29Zm59.81,0c0-11.17-7.87-18.57-18.1-18.57s-18.1,7.4-18.1,18.57,7.87,18.58,18.1,18.58S1671.07,303.47,1671.07,292.29Z"/><path class="cls-6" d="M1717.5,216.75h23.6V331.64h-23.6Z"/><path class="cls-6" d="M1852.53,292.29c0,23.45-17,41.55-37.62,41.55-10.54,0-18.25-3.62-23.45-9.6v7.4h-23.6V221.47h23.6v38.88c5.2-6,12.91-9.6,23.45-9.6C1835.53,250.75,1852.53,268.85,1852.53,292.29Zm-23.61,0c0-11.8-7.87-19.19-18.73-19.19s-18.73,7.39-18.73,19.19,7.87,19.21,18.73,19.21S1828.92,304.1,1828.92,292.29Z"/><path class="cls-6" d="M1915.32,312.75c6.46,0,12-2.51,15.11-6l18.89,10.86c-7.72,10.71-19.36,16.21-34.31,16.21-26.91,0-43.6-18.1-43.6-41.55s17-41.54,41.87-41.54c23,0,40,17.78,40,41.54a45.75,45.75,0,0,1-.94,9.45h-55.87C1899.43,309.92,1906.67,312.75,1915.32,312.75Zm14.48-28.64c-2.52-9.13-9.6-12.43-16.68-12.43-9,0-14.95,4.41-17.16,12.43Z"/><path class="cls-7" d="M399,479.1c0-13.39,9.94-23.66,23.66-23.66A22.69,22.69,0,0,1,442.14,466l-9,5.2c-2-3.51-5.92-5.59-10.53-5.59-8.06,0-13.26,5.39-13.26,13.52s5.2,13.52,13.26,13.52c4.61,0,8.58-2.08,10.53-5.59l9,5.2a22.54,22.54,0,0,1-19.5,10.53C408.92,502.76,399,492.49,399,479.1Z"/><path class="cls-7" d="M449.29,485.6a17.23,17.23,0,1,1,17.22,17.16A17,17,0,0,1,449.29,485.6Zm24.7,0a7.48,7.48,0,1,0-7.48,7.67A7.29,7.29,0,0,0,474,485.6Z"/><path class="cls-7" d="M541.91,481.89v20h-9.75V482.74c0-3.25-1.56-5.33-4.68-5.33s-5.07,2.27-5.07,6.11v18.33h-9.75V482.74c0-3.25-1.56-5.33-4.68-5.33s-5.07,2.27-5.07,6.11v18.33h-9.75v-32.5h9.75v3c1.5-2.21,4.36-3.9,8.71-3.9a9.67,9.67,0,0,1,8.52,4.29c1.82-2.6,4.81-4.29,9.42-4.29C537,468.44,541.91,473.77,541.91,481.89Z"/><path class="cls-7" d="M587.48,485.6c0,9.68-7,17.16-15.54,17.16-4.35,0-7.54-1.5-9.68-4v16.06H552.5v-45.5h9.76v3c2.14-2.47,5.33-4,9.68-4C580.46,468.44,587.48,475.91,587.48,485.6Zm-9.75,0c0-4.88-3.25-7.93-7.74-7.93s-7.73,3.05-7.73,7.93,3.25,7.93,7.73,7.93S577.73,490.47,577.73,485.6Z"/><path class="cls-7" d="M627.65,469.35v32.5h-9.76v-3.06c-1.75,2.41-5,4-9.29,4-6.57,0-12.16-4.68-12.16-13.46V469.35h9.75v18.52c0,4,2.54,5.92,5.66,5.92,3.57,0,6-2.08,6-6.7V469.35Z"/><path class="cls-7" d="M651,478.71v11.5c0,2.8,2.41,3.06,6.7,2.8v8.84c-12.74,1.3-16.45-2.54-16.45-11.64v-11.5h-5.2v-9.36h5.2v-6.18l9.75-2.92v9.1h6.7v9.36Z"/><path class="cls-7" d="M683,494.05a8.48,8.48,0,0,0,6.24-2.47l7.8,4.48c-3.18,4.42-8,6.7-14.17,6.7-11.11,0-18-7.48-18-17.16s7-17.16,17.29-17.16c9.49,0,16.51,7.34,16.51,17.16a19,19,0,0,1-.39,3.9H675.22C676.46,492.88,679.45,494.05,683,494.05Zm6-11.83a6.69,6.69,0,0,0-6.89-5.14c-3.7,0-6.17,1.82-7.08,5.14Z"/><path class="cls-7" d="M727.61,468.7v11.05c-4-.65-9.75,1-9.75,7.41v14.69h-9.75v-32.5h9.75v5.78C719.16,470.78,723.52,468.7,727.61,468.7Z"/><path class="cls-7" d="M781.43,492.1c0,7.47-6.5,10.66-13.52,10.66-6.5,0-11.44-2.47-14-7.74l8.45-4.81a5.33,5.33,0,0,0,5.52,3.84c2.34,0,3.51-.72,3.51-2,0-3.57-16-1.69-16-12.93,0-7.09,6-10.66,12.74-10.66a14.23,14.23,0,0,1,12.68,6.95l-8.32,4.49a4.72,4.72,0,0,0-4.36-2.86c-1.69,0-2.73.65-2.73,1.82C765.44,482.54,781.43,480.07,781.43,492.1Z"/><path class="cls-7" d="M788.26,485.6a17.19,17.19,0,0,1,31.91-8.84l-8.51,4.94a6.73,6.73,0,0,0-6.31-3.64,7.54,7.54,0,0,0,0,15.08,6.68,6.68,0,0,0,6.31-3.64l8.51,4.88a16.6,16.6,0,0,1-14.69,8.38A16.84,16.84,0,0,1,788.26,485.6Z"/><path class="cls-7" d="M827,460.64a5.85,5.85,0,1,1,5.85,5.85A5.9,5.9,0,0,1,827,460.64Zm1,8.71h9.75v32.5H828Z"/><path class="cls-7" d="M865.28,494.05a8.48,8.48,0,0,0,6.24-2.47l7.8,4.48c-3.18,4.42-8,6.7-14.17,6.7-11.11,0-18-7.48-18-17.16s7-17.16,17.29-17.16c9.49,0,16.51,7.34,16.51,17.16a19,19,0,0,1-.39,3.9H857.48C858.72,492.88,861.71,494.05,865.28,494.05Zm6-11.83a6.69,6.69,0,0,0-6.89-5.14c-3.7,0-6.17,1.82-7.08,5.14Z"/><path class="cls-7" d="M921.57,481.89v20h-9.75V483.32c0-4-2.53-5.91-5.65-5.91-3.58,0-6,2.08-6,6.69v17.75h-9.75v-32.5h9.75v3c1.76-2.4,5-4,9.3-4C916,468.44,921.57,473.12,921.57,481.89Z"/><path class="cls-7" d="M930.54,485.6a17.19,17.19,0,0,1,31.92-8.84l-8.52,4.94a6.71,6.71,0,0,0-6.3-3.64,7.54,7.54,0,0,0,0,15.08,6.66,6.66,0,0,0,6.3-3.64l8.52,4.88a16.61,16.61,0,0,1-14.69,8.38A16.84,16.84,0,0,1,930.54,485.6Z"/><path class="cls-7" d="M986.12,494.05a8.49,8.49,0,0,0,6.24-2.47l7.8,4.48c-3.19,4.42-8,6.7-14.17,6.7-11.12,0-18-7.48-18-17.16s7-17.16,17.29-17.16c9.49,0,16.51,7.34,16.51,17.16a19,19,0,0,1-.39,3.9H978.32C979.55,492.88,982.54,494.05,986.12,494.05Zm6-11.83a6.7,6.7,0,0,0-6.89-5.14c-3.71,0-6.18,1.82-7.09,5.14Z"/><path class="cls-7" d="M1056.57,492.1c0,7.47-6.5,10.66-13.52,10.66-6.5,0-11.44-2.47-14-7.74l8.45-4.81a5.33,5.33,0,0,0,5.52,3.84c2.34,0,3.51-.72,3.51-2,0-3.57-16-1.69-16-12.93,0-7.09,6-10.66,12.74-10.66a14.23,14.23,0,0,1,12.68,6.95l-8.32,4.49a4.72,4.72,0,0,0-4.36-2.86c-1.69,0-2.73.65-2.73,1.82C1040.58,482.54,1056.57,480.07,1056.57,492.1Z"/><path class="cls-7" d="M1076.72,478.71v11.5c0,2.8,2.41,3.06,6.7,2.8v8.84c-12.74,1.3-16.45-2.54-16.45-11.64v-11.5h-5.2v-9.36h5.2v-6.18l9.75-2.92v9.1h6.7v9.36Z"/><path class="cls-7" d="M1124.24,469.35v32.5h-9.75v-3.06c-1.76,2.41-5,4-9.3,4-6.56,0-12.15-4.68-12.15-13.46V469.35h9.75v18.52c0,4,2.53,5.92,5.65,5.92,3.58,0,6-2.08,6-6.7V469.35Z"/><path class="cls-7" d="M1168.63,456.35v45.5h-9.75v-3.06c-2.14,2.47-5.33,4-9.68,4-8.52,0-15.54-7.48-15.54-17.16s7-17.16,15.54-17.16c4.35,0,7.54,1.49,9.68,4v-16Zm-9.75,29.25c0-4.88-3.25-7.93-7.73-7.93s-7.74,3.05-7.74,7.93,3.25,7.93,7.74,7.93S1158.88,490.47,1158.88,485.6Z"/><path class="cls-7" d="M1196.19,494.05a8.48,8.48,0,0,0,6.24-2.47l7.8,4.48c-3.18,4.42-8,6.7-14.17,6.7-11.11,0-18-7.48-18-17.16s7-17.16,17.29-17.16c9.49,0,16.51,7.34,16.51,17.16a19,19,0,0,1-.39,3.9h-23.08C1189.63,492.88,1192.62,494.05,1196.19,494.05Zm6-11.83a6.69,6.69,0,0,0-6.89-5.14c-3.7,0-6.17,1.82-7.08,5.14Z"/><path class="cls-7" d="M1252.48,481.89v20h-9.75V483.32c0-4-2.53-5.91-5.65-5.91-3.58,0-6,2.08-6,6.69v17.75h-9.75v-32.5H1231v3c1.76-2.4,5-4,9.3-4C1246.89,468.44,1252.48,473.12,1252.48,481.89Z"/><path class="cls-7" d="M1275.43,478.71v11.5c0,2.8,2.4,3.06,6.69,2.8v8.84c-12.74,1.3-16.45-2.54-16.45-11.64v-11.5h-5.2v-9.36h5.2v-6.18l9.76-2.92v9.1h6.69v9.36Z"/><path class="cls-7" d="M1299.34,511h-7.8l2.6-19.18h10.4Z"/><path class="cls-7" d="M1368.44,456.35v45.5h-9.75v-3.06c-2.15,2.47-5.33,4-9.69,4-8.51,0-15.53-7.48-15.53-17.16s7-17.16,15.53-17.16c4.36,0,7.54,1.49,9.69,4v-16Zm-9.75,29.25c0-4.88-3.25-7.93-7.74-7.93s-7.73,3.05-7.73,7.93,3.25,7.93,7.73,7.93S1358.69,490.47,1358.69,485.6Z"/><path class="cls-7" d="M1396,494.05a8.49,8.49,0,0,0,6.24-2.47l7.8,4.48c-3.19,4.42-8,6.7-14.17,6.7-11.12,0-18-7.48-18-17.16s7-17.16,17.29-17.16c9.49,0,16.51,7.34,16.51,17.16a19,19,0,0,1-.39,3.9H1388.2C1389.43,492.88,1392.42,494.05,1396,494.05Zm6-11.83a6.7,6.7,0,0,0-6.89-5.14c-3.71,0-6.18,1.82-7.09,5.14Z"/><path class="cls-7" d="M1451.31,469.35l-12,32.5h-11l-12-32.5H1427l6.76,20.6,6.76-20.6Z"/><path class="cls-7" d="M1474,494.05a8.49,8.49,0,0,0,6.24-2.47l7.8,4.48c-3.19,4.42-8,6.7-14.17,6.7-11.12,0-18-7.48-18-17.16s7-17.16,17.29-17.16c9.49,0,16.51,7.34,16.51,17.16a19,19,0,0,1-.39,3.9H1466.2C1467.43,492.88,1470.42,494.05,1474,494.05Zm6-11.83a6.7,6.7,0,0,0-6.89-5.14c-3.71,0-6.18,1.82-7.09,5.14Z"/><path class="cls-7" d="M1499.09,454.4h9.75v47.45h-9.75Z"/><path class="cls-7" d="M1518.26,485.6a17.23,17.23,0,1,1,17.23,17.16A17,17,0,0,1,1518.26,485.6Zm24.7,0a7.48,7.48,0,1,0-7.47,7.67A7.29,7.29,0,0,0,1543,485.6Z"/><path class="cls-7" d="M1597.11,485.6c0,9.68-7,17.16-15.54,17.16-4.35,0-7.54-1.5-9.68-4v16.06h-9.75v-45.5h9.75v3c2.14-2.47,5.33-4,9.68-4C1590.09,468.44,1597.11,475.91,1597.11,485.6Zm-9.75,0c0-4.88-3.25-7.93-7.74-7.93s-7.73,3.05-7.73,7.93,3.25,7.93,7.73,7.93S1587.36,490.47,1587.36,485.6Z"/><path class="cls-7" d="M1623,494.05a8.48,8.48,0,0,0,6.24-2.47l7.8,4.48c-3.18,4.42-8,6.7-14.17,6.7-11.11,0-18-7.48-18-17.16s7-17.16,17.29-17.16c9.49,0,16.51,7.34,16.51,17.16a19,19,0,0,1-.39,3.9h-23.08C1616.48,492.88,1619.47,494.05,1623,494.05Zm6-11.83a6.69,6.69,0,0,0-6.89-5.14c-3.7,0-6.17,1.82-7.08,5.14Z"/><path class="cls-7" d="M1667.63,468.7v11.05c-4-.65-9.75,1-9.75,7.41v14.69h-9.75v-32.5h9.75v5.78C1659.18,470.78,1663.54,468.7,1667.63,468.7Z"/><path class="cls-7" d="M1708.06,469.35h6v9.36h-6v23.14h-9.75V478.71H1694v-9.36h4.36c0-9.1,5-14.56,15.79-13.91v9.36C1710.46,464.47,1708.06,465.58,1708.06,469.35Z"/><path class="cls-7" d="M1741.08,468.7v11.05c-4-.65-9.75,1-9.75,7.41v14.69h-9.75v-32.5h9.75v5.78C1732.63,470.78,1737,468.7,1741.08,468.7Z"/><path class="cls-7" d="M1746.93,485.6a17.23,17.23,0,1,1,17.22,17.16A17,17,0,0,1,1746.93,485.6Zm24.7,0a7.48,7.48,0,1,0-7.48,7.67A7.29,7.29,0,0,0,1771.63,485.6Z"/><path class="cls-7" d="M1839.55,481.89v20h-9.75V482.74c0-3.25-1.56-5.33-4.68-5.33s-5.07,2.27-5.07,6.11v18.33h-9.75V482.74c0-3.25-1.56-5.33-4.68-5.33s-5.07,2.27-5.07,6.11v18.33h-9.75v-32.5h9.75v3c1.5-2.21,4.36-3.9,8.71-3.9a9.67,9.67,0,0,1,8.52,4.29c1.82-2.6,4.81-4.29,9.42-4.29C1834.68,468.44,1839.55,473.77,1839.55,481.89Z"/><path class="cls-7" d="M1886,486.9H1881v15h-10.4v-45.5h18.2a15.56,15.56,0,0,1,15.6,15.6,15,15,0,0,1-8.38,13.19l9.68,16.71h-11.18Zm-4.94-9.1h7.8c2.86,0,5.2-2.54,5.2-5.85s-2.34-5.85-5.2-5.85H1881Z"/><path class="cls-7" d="M1944.27,469.35v32.5h-9.75v-3.06c-1.76,2.41-5,4-9.3,4-6.56,0-12.15-4.68-12.15-13.46V469.35h9.75v18.52c0,4,2.53,5.92,5.65,5.92,3.58,0,6-2.08,6-6.7V469.35Z"/><path class="cls-7" d="M1980.21,492.1c0,7.47-6.5,10.66-13.52,10.66-6.5,0-11.44-2.47-14-7.74l8.45-4.81a5.33,5.33,0,0,0,5.52,3.84c2.34,0,3.51-.72,3.51-2,0-3.57-16-1.69-16-12.93,0-7.09,6-10.66,12.74-10.66a14.23,14.23,0,0,1,12.68,6.95l-8.32,4.49A4.72,4.72,0,0,0,1967,477c-1.69,0-2.73.65-2.73,1.82C1964.22,482.54,1980.21,480.07,1980.21,492.1Z"/><path class="cls-7" d="M2012.58,492.1c0,7.47-6.5,10.66-13.52,10.66-6.5,0-11.44-2.47-14-7.74l8.45-4.81a5.33,5.33,0,0,0,5.52,3.84c2.34,0,3.51-.72,3.51-2,0-3.57-16-1.69-16-12.93,0-7.09,6-10.66,12.74-10.66a14.23,14.23,0,0,1,12.68,6.95l-8.32,4.49a4.72,4.72,0,0,0-4.36-2.86c-1.69,0-2.73.65-2.73,1.82C1996.59,482.54,2012.58,480.07,2012.58,492.1Z"/><path class="cls-7" d="M2020.38,460.64a5.85,5.85,0,1,1,5.85,5.85A5.91,5.91,0,0,1,2020.38,460.64Zm1,8.71h9.75v32.5h-9.75Z"/><path class="cls-7" d="M2075.5,469.35v32.5h-9.75v-3.06c-2.14,2.47-5.33,4-9.68,4-8.52,0-15.54-7.48-15.54-17.16s7-17.16,15.54-17.16c4.35,0,7.54,1.49,9.68,4v-3Zm-9.75,16.25c0-4.88-3.25-7.93-7.73-7.93s-7.74,3.05-7.74,7.93,3.25,7.93,7.74,7.93S2065.75,490.47,2065.75,485.6Z"/><path class="cls-4" d="M967.17,566.85v15h-4.5v-1.41a5.63,5.63,0,0,1-4.47,1.83c-3.93,0-7.17-3.45-7.17-7.92s3.24-7.92,7.17-7.92a5.63,5.63,0,0,1,4.47,1.83v-1.41Zm-4.5,7.5A3.57,3.57,0,1,0,959.1,578,3.43,3.43,0,0,0,962.67,574.35Z"/><path class="cls-4" d="M993.93,572.64v9.21h-4.5V573.3a2.47,2.47,0,0,0-2.61-2.73c-1.65,0-2.79,1-2.79,3.09v8.19h-4.5v-15H984v1.41a5.13,5.13,0,0,1,4.29-1.83C991.35,566.43,993.93,568.59,993.93,572.64Z"/><path class="cls-4" d="M1021.47,560.85v21H1017v-1.41a5.63,5.63,0,0,1-4.47,1.83c-3.93,0-7.17-3.45-7.17-7.92s3.24-7.92,7.17-7.92a5.63,5.63,0,0,1,4.47,1.83v-7.41Zm-4.5,13.5a3.57,3.57,0,1,0-3.57,3.66A3.43,3.43,0,0,0,1017,574.35Z"/><path class="cls-4" d="M1062,577.35c0,3.45-3,4.92-6.24,4.92-3,0-5.28-1.14-6.45-3.57l3.9-2.22a2.46,2.46,0,0,0,2.55,1.77c1.08,0,1.62-.33,1.62-.93,0-1.65-7.38-.78-7.38-6,0-3.27,2.76-4.92,5.88-4.92a6.56,6.56,0,0,1,5.85,3.21l-3.84,2.07a2.18,2.18,0,0,0-2-1.32c-.78,0-1.26.3-1.26.84C1054.65,572.94,1062,571.8,1062,577.35Z"/><path class="cls-4" d="M1072.44,574.35a8,8,0,1,1,8,7.92A7.86,7.86,0,0,1,1072.44,574.35Zm11.4,0a3.45,3.45,0,1,0-3.45,3.54A3.36,3.36,0,0,0,1083.84,574.35Z"/><path class="cls-4" d="M1122.45,572.64v9.21H1118V573c0-1.5-.72-2.46-2.16-2.46s-2.34,1-2.34,2.82v8.46H1109V573c0-1.5-.72-2.46-2.16-2.46s-2.34,1-2.34,2.82v8.46H1100v-15h4.5v1.38a4.6,4.6,0,0,1,4-1.8,4.46,4.46,0,0,1,3.93,2,4.94,4.94,0,0,1,4.35-2C1120.2,566.43,1122.45,568.89,1122.45,572.64Z"/><path class="cls-4" d="M1142.22,578.25a3.92,3.92,0,0,0,2.88-1.14l3.6,2.07a7.61,7.61,0,0,1-6.54,3.09c-5.13,0-8.31-3.45-8.31-7.92a7.69,7.69,0,0,1,8-7.92,7.57,7.57,0,0,1,7.62,7.92,8.72,8.72,0,0,1-.18,1.8h-10.65C1139.19,577.71,1140.57,578.25,1142.22,578.25Zm2.76-5.46a3.38,3.38,0,0,0-6.45,0Z"/><path class="cls-4" d="M1166.31,571.17v5.31c0,1.29,1.11,1.41,3.09,1.29v4.08c-5.88.6-7.59-1.17-7.59-5.37v-5.31h-2.4v-4.32h2.4V564l4.5-1.35v4.2h3.09v4.32Z"/><path class="cls-4" d="M1180.56,562.83a2.7,2.7,0,1,1,2.7,2.7A2.73,2.73,0,0,1,1180.56,562.83Zm.45,4h4.5v15H1181Z"/><path class="cls-4" d="M1220.36,572.64v9.21h-4.49V573c0-1.5-.73-2.46-2.16-2.46s-2.34,1-2.34,2.82v8.46h-4.5V573c0-1.5-.72-2.46-2.16-2.46s-2.34,1-2.34,2.82v8.46h-4.5v-15h4.5v1.38a4.6,4.6,0,0,1,4-1.8,4.48,4.48,0,0,1,3.94,2,4.94,4.94,0,0,1,4.35-2C1218.11,566.43,1220.36,568.89,1220.36,572.64Z"/><path class="cls-4" d="M1240.13,578.25a3.88,3.88,0,0,0,2.88-1.14l3.61,2.07a7.64,7.64,0,0,1-6.54,3.09c-5.13,0-8.31-3.45-8.31-7.92a7.69,7.69,0,0,1,8-7.92,7.57,7.57,0,0,1,7.62,7.92,8.71,8.71,0,0,1-.19,1.8h-10.64C1237.11,577.71,1238.49,578.25,1240.13,578.25Zm2.76-5.46a3.37,3.37,0,0,0-6.44,0Z"/><path class="cls-4" d="M1270,577.35c0,3.45-3,4.92-6.23,4.92-3,0-5.28-1.14-6.45-3.57l3.9-2.22a2.46,2.46,0,0,0,2.55,1.77c1.08,0,1.61-.33,1.61-.93,0-1.65-7.37-.78-7.37-6,0-3.27,2.76-4.92,5.88-4.92a6.57,6.57,0,0,1,5.85,3.21l-3.84,2.07a2.19,2.19,0,0,0-2-1.32c-.78,0-1.27.3-1.27.84C1262.63,572.94,1270,571.8,1270,577.35Z"/><path class="cls-4" d="M1313.42,566.85v15h-4.5v-1.41a5.63,5.63,0,0,1-4.46,1.83c-3.94,0-7.17-3.45-7.17-7.92s3.23-7.92,7.17-7.92a5.63,5.63,0,0,1,4.46,1.83v-1.41Zm-4.5,7.5a3.57,3.57,0,1,0-3.57,3.66A3.43,3.43,0,0,0,1308.92,574.35Z"/><path class="cls-4" d="M1357.73,560.85v21h-4.5v-1.41a5.63,5.63,0,0,1-4.47,1.83c-3.93,0-7.17-3.45-7.17-7.92s3.24-7.92,7.17-7.92a5.63,5.63,0,0,1,4.47,1.83v-7.41Zm-4.5,13.5a3.57,3.57,0,1,0-3.57,3.66A3.43,3.43,0,0,0,1353.23,574.35Z"/><path class="cls-4" d="M1377.71,578.25a3.92,3.92,0,0,0,2.88-1.14l3.6,2.07a7.61,7.61,0,0,1-6.54,3.09c-5.13,0-8.31-3.45-8.31-7.92a7.69,7.69,0,0,1,8-7.92,7.57,7.57,0,0,1,7.62,7.92,8.72,8.72,0,0,1-.18,1.8h-10.65C1374.68,577.71,1376.06,578.25,1377.71,578.25Zm2.76-5.46a3.38,3.38,0,0,0-6.45,0Z"/><path class="cls-4" d="M1407.59,577.35c0,3.45-3,4.92-6.24,4.92-3,0-5.28-1.14-6.45-3.57l3.9-2.22a2.46,2.46,0,0,0,2.55,1.77c1.08,0,1.62-.33,1.62-.93,0-1.65-7.38-.78-7.38-6,0-3.27,2.76-4.92,5.88-4.92a6.56,6.56,0,0,1,5.85,3.21l-3.84,2.07a2.18,2.18,0,0,0-2-1.32c-.78,0-1.26.3-1.26.84C1400.21,572.94,1407.59,571.8,1407.59,577.35Z"/><path class="cls-4" d="M1418.45,562.83a2.7,2.7,0,1,1,2.7,2.7A2.73,2.73,0,0,1,1418.45,562.83Zm.45,4h4.5v15h-4.5Z"/><path class="cls-4" d="M1451.15,566.85V581.1c0,5-3.93,7.17-7.92,7.17-3.12,0-5.73-1.17-7.11-3.63l3.84-2.22a3.43,3.43,0,0,0,3.42,1.89c2.1,0,3.39-1.08,3.39-3.21v-1.38a5.33,5.33,0,0,1-4.38,1.95,7.62,7.62,0,0,1,0-15.24,5.33,5.33,0,0,1,4.38,2v-1.53Zm-4.38,7.2a3.63,3.63,0,1,0-3.63,3.48A3.4,3.4,0,0,0,1446.77,574.05Z"/><path class="cls-4" d="M1477.91,572.64v9.21h-4.5V573.3a2.47,2.47,0,0,0-2.61-2.73c-1.65,0-2.79,1-2.79,3.09v8.19h-4.5v-15h4.5v1.41a5.13,5.13,0,0,1,4.29-1.83C1475.33,566.43,1477.91,568.59,1477.91,572.64Z"/><path class="cls-4" d="M1497.68,578.25a3.92,3.92,0,0,0,2.88-1.14l3.6,2.07a7.61,7.61,0,0,1-6.54,3.09c-5.13,0-8.31-3.45-8.31-7.92a7.69,7.69,0,0,1,8-7.92,7.57,7.57,0,0,1,7.62,7.92,8.72,8.72,0,0,1-.18,1.8h-10.65C1494.65,577.71,1496,578.25,1497.68,578.25Zm2.76-5.46a3.38,3.38,0,0,0-6.45,0Z"/><path class="cls-4" d="M1525.52,566.55v5.1c-1.86-.3-4.5.45-4.5,3.42v6.78h-4.5v-15h4.5v2.67A4.51,4.51,0,0,1,1525.52,566.55Z"/><path class="cls-8" d="M1240.76,0c.07.44.15.87.23,1.31a113.34,113.34,0,0,0,132.54,90.11A113.38,113.38,0,0,0,1463.9,0Z"/><path class="cls-9" d="M2480,646V470.35A155.09,155.09,0,0,0,2265.75,646Z"/></svg>